<svg xmlns="http://www.w3.org/2000/svg" width="324" height="192" viewBox="0 0 324 192">
<g>
<path d="M 205.50 187.50 C195.49,184.87 183.96,168.71 181.90,154.43 C180.74,146.37 181.64,133.70 183.64,129.77 C186.29,124.56 193.38,122.59 198.99,125.49 C204.19,128.19 205.00,130.41 205.00,142.07 C205.00,151.20 205.32,153.29 207.29,157.01 C208.55,159.39 210.77,162.23 212.23,163.32 C214.70,165.17 215.05,165.19 217.32,163.71 C220.64,161.54 227.41,151.19 229.93,144.45 C232.10,138.65 232.57,125.70 231.13,111.02 L 230.50 104.55 L 226.12 103.80 C220.07,102.78 217.75,101.00 213.68,94.29 C206.57,82.58 202.82,68.37 202.62,52.38 C202.51,43.96 202.70,42.96 204.91,40.61 C207.73,37.59 213.16,36.29 216.53,37.83 C220.07,39.45 222.03,44.18 223.58,54.88 C225.68,69.39 227.16,77.00 227.86,76.99 C228.21,76.99 228.58,72.15 228.67,66.24 C228.84,55.36 231.04,45.64 234.55,40.28 C237.28,36.12 246.19,38.26 252.00,44.48 L 254.50 47.16 L 255.27 82.83 C255.69,102.45 255.76,123.68 255.43,130.00 C254.61,145.62 251.03,156.84 243.05,168.76 C236.75,178.17 234.31,180.38 225.31,184.86 C218.19,188.41 212.07,189.22 205.50,187.50 ZM 120.02 116.18 C116.71,112.86 116.37,110.37 115.46,82.50 C114.56,54.63 116.47,46.15 124.05,44.49 C127.22,43.79 132.34,46.01 133.89,48.75 C134.68,50.15 135.13,50.25 136.14,49.25 C139.23,46.19 147.73,48.43 155.99,54.49 C158.62,56.42 160.99,58.00 161.26,58.00 C161.53,58.00 162.29,56.71 162.94,55.14 C163.59,53.57 165.89,50.56 168.04,48.46 C171.50,45.08 172.65,44.58 177.82,44.21 C185.11,43.68 188.82,45.42 192.82,51.25 C197.09,57.47 198.08,63.23 198.69,85.56 C199.28,107.03 198.96,109.01 194.12,113.39 C191.75,115.54 185.57,115.91 182.20,114.11 C177.51,111.60 176.50,107.64 176.50,91.80 C176.50,83.71 176.19,77.42 175.80,77.80 C175.42,78.18 174.57,82.78 173.92,88.00 C172.50,99.28 171.06,102.53 166.51,104.70 C163.52,106.12 162.68,106.15 159.42,104.91 C153.70,102.73 151.93,99.53 150.84,89.37 C149.79,79.68 147.70,71.34 145.61,68.48 C144.34,66.74 144.19,66.78 142.65,69.13 C139.07,74.59 137.07,83.18 135.98,97.71 C135.38,105.75 134.39,113.27 133.78,114.42 C130.90,119.82 124.49,120.64 120.02,116.18 ZM 79.88 113.11 C71.13,111.14 69.56,110.25 61.93,102.88 C55.52,96.68 51.00,88.09 51.00,82.10 C51.00,74.40 54.59,67.39 62.37,59.87 C71.59,50.95 78.28,47.51 84.55,48.46 C100.31,50.82 106.97,54.48 110.73,62.82 C112.89,67.65 113.35,70.39 113.77,81.14 C114.35,96.29 112.82,102.70 107.12,108.86 C101.28,115.18 94.06,116.30 79.88,113.11 ZM 103.43 85.43 C105.30,83.56 105.46,80.86 103.80,79.20 C103.07,78.47 99.52,78.00 94.72,78.00 L 86.85 78.00 L 87.54 69.22 C88.29,59.57 87.41,57.52 82.81,58.17 C79.59,58.63 78.13,63.57 78.06,74.25 C77.98,86.37 78.67,87.00 91.93,87.00 C99.62,87.00 102.21,86.65 103.43,85.43 ZM 283.08 111.41 C275.64,109.41 271.56,106.67 267.06,100.63 C258.17,88.73 255.77,78.48 258.60,64.50 C260.79,53.62 261.85,51.55 269.25,43.75 C276.19,36.42 278.70,35.55 284.36,38.51 C285.94,39.33 288.29,40.00 289.59,40.00 C293.81,40.00 303.39,44.99 308.16,49.67 C313.58,54.99 319.11,66.10 319.77,72.99 C320.34,78.87 317.58,89.72 314.70,92.99 C313.48,94.37 311.62,97.19 310.58,99.25 C307.47,105.40 295.77,113.19 290.01,112.93 C289.18,112.90 286.06,112.21 283.08,111.41 ZM 289.61 81.79 C291.37,78.39 292.07,62.55 290.65,58.34 C289.64,55.35 287.17,54.66 284.27,56.56 C281.98,58.06 281.85,58.62 282.15,65.83 L 282.48 73.50 L 276.03 73.80 C268.94,74.14 267.00,75.13 267.00,78.42 C267.00,82.13 268.93,83.00 277.14,83.00 C281.40,83.00 285.16,83.45 285.50,84.00 C286.60,85.78 287.91,85.07 289.61,81.79 ZM 12.33 108.30 C9.05,107.67 5.14,103.22 4.27,99.14 C3.85,97.14 3.52,81.10 3.54,63.50 C3.60,19.85 5.14,9.82 12.10,7.81 C26.50,3.65 26.03,3.71 33.09,4.88 C43.40,6.58 50.68,9.67 55.08,14.20 C64.36,23.76 67.20,37.13 62.98,51.34 C58.77,65.52 50.23,72.01 34.75,72.80 L 26.00 73.24 L 26.00 86.75 C26.00,98.58 25.75,100.67 23.97,103.54 C22.26,106.31 17.21,109.34 15.10,108.86 C14.77,108.79 13.52,108.54 12.33,108.30 ZM 39.24 47.85 C43.83,45.46 45.35,36.71 41.99,31.99 C39.67,28.72 32.58,25.00 28.68,25.00 L 26.00 25.00 L 26.00 37.57 L 26.00 50.14 L 31.75 49.45 C34.91,49.06 38.28,48.34 39.24,47.85 Z" fill="rgba(254,98,70,1)"/>
</g>
</svg>